<?xml version="1.0" encoding="UTF-8"?>
<svg width="192px" height="192px" viewBox="0 0 192 192" version="1.1" xmlns="http://www.w3.org/2000/svg" xmlns:xlink="http://www.w3.org/1999/xlink">
    <title>编组 3</title>
    <g id="页面-1" stroke="none" stroke-width="1" fill="none" fill-rule="evenodd">
        <g id="编组-3">
            <rect id="矩形" x="0" y="0" width="192" height="192"></rect>
            <path d="M121.455248,158.020976 L120.034229,158.856071 C118.131614,159.95746 116.198018,161.011274 114.235068,162.015885 C118.096563,161.160567 121.859126,160.039772 125.501556,158.673271 C124.144623,158.476694 122.796325,158.259277 121.455248,158.020976 Z M70.3086903,157.880112 L69.7841751,157.978197 C68.6005333,158.190852 67.4112427,158.387235 66.2165432,158.567105 C69.9451218,159.981261 73.8029259,161.138321 77.7659472,162.015471 C75.2293723,160.71822 72.7427896,159.33846 70.3086903,157.880112 Z M95.4990935,150.491725 L94.9784657,150.704442 C90.7456108,152.416958 86.4002847,153.909639 81.9566433,155.16833 C86.4788474,157.455684 91.1683421,159.464018 95.999851,161.171719 C100.705726,159.508482 105.275647,157.560554 109.690165,155.348332 C104.83653,154.00248 100.100712,152.377232 95.4990935,150.491725 Z M136.788612,147.28497 L136.276497,147.70366 C134.721688,148.957102 133.136954,150.174919 131.523537,151.355871 C134.135317,151.629073 136.773524,151.815203 139.433882,151.91473 C140.069809,151.528807 140.698425,151.136833 141.321411,150.736855 C139.786358,149.615996 138.275388,148.465065 136.788612,147.28497 Z M55.2062953,147.284489 L54.3467025,147.965874 C53.1397357,148.90879 51.9171308,149.832615 50.6793421,150.736896 C51.2815504,151.123977 51.8897856,151.5036 52.5031626,151.875593 C55.1438118,151.756818 57.760189,151.552464 60.3516861,151.265586 C58.601454,149.98006 56.8861771,148.653166 55.2062953,147.284489 Z M123.117511,134.914033 L122.595138,135.303425 C117.269211,139.20743 111.630201,142.709499 105.722786,145.764954 C110.332786,147.316398 115.069025,148.594772 119.911319,149.581529 C123.601409,147.256309 127.152864,144.736501 130.554419,142.036028 C127.987656,139.751922 125.508349,137.376167 123.117511,134.914033 Z M68.4595536,135.343492 L67.4091629,136.409163 C65.4772213,138.341105 63.4898698,140.217636 61.4496969,142.03617 C64.7717836,144.676679 68.2413188,147.144581 71.8406237,149.426173 C76.4230384,148.46113 80.9069075,147.235781 85.2782602,145.765547 C79.3900156,142.719956 73.769388,139.231395 68.4595536,135.343492 Z M102,88 C103.104569,88 104,88.8954305 104,90 L104,110 C104,111.104569 103.104569,112 102,112 L82,112 C80.8954305,112 80,111.104569 80,110 L80,90 C80,88.8954305 80.8954305,88 82,88 L102,88 Z M142,88 C143.104569,88 144,88.8954305 144,90 L144,102 C144,103.104569 143.104569,104 142,104 L130,104 C128.895431,104 128,103.104569 128,102 L128,90 C128,88.8954305 128.895431,88 130,88 L142,88 Z M70,72 C71.1045695,72 72,72.8954305 72,74 L72,90 C72,91.1045695 71.1045695,92 70,92 L54,92 C52.8954305,92 52,91.1045695 52,90 L52,74 C52,72.8954305 52.8954305,72 54,72 L70,72 Z M130,56 C131.104569,56 132,56.8954305 132,58 L132,78 C132,79.1045695 131.104569,80 130,80 L110,80 C108.895431,80 108,79.1045695 108,78 L108,58 C108,56.8954305 108.895431,56 110,56 L130,56 Z M154,52 C155.104569,52 156,52.8954305 156,54 L156,66 C156,67.1045695 155.104569,68 154,68 L142,68 C140.895431,68 140,67.1045695 140,66 L140,54 C140,52.8954305 140.895431,52 142,52 L154,52 Z M54,48 C55.1045695,48 56,48.8954305 56,50 L56,62 C56,63.1045695 55.1045695,64 54,64 L42,64 C40.8954305,64 40,63.1045695 40,62 L40,50 C40,48.8954305 40.8954305,48 42,48 L54,48 Z M96,32 C98.209139,32 100,33.790861 100,36 L100,56 C100,58.209139 98.209139,60 96,60 L76,60 C73.790861,60 72,58.209139 72,56 L72,36 C72,33.790861 73.790861,32 76,32 L96,32 Z M73.9362853,129.430146 C80.6363582,134.260063 87.8588407,138.414857 95.5003968,141.795303 C103.375198,138.311237 110.804756,134.005316 117.680395,128.985983 C115.86318,126.891267 114.106397,124.74279 112.412725,122.543263 C112.350163,122.467689 112.290472,122.389669 112.233661,122.309466 C111.954679,121.946361 111.677695,121.581477 111.402444,121.215217 C111.61433,121.47095 111.822698,121.722411 112.000074,121.934118 C111.680675,121.361168 111.5,120.701683 111.5,120 C111.5,117.790861 113.290861,116 115.5,116 C116.98174,116 118.275304,116.805674 118.966517,118.002847 L119,118 C119.003636,117.999772 119.007272,117.999543 119.010908,117.999314 C120.610842,120.065134 122.270608,122.083066 123.98691,124.050397 C126.699944,121.779023 129.31104,119.389983 131.812352,116.891129 L131.902379,116.888007 C132.608511,115.754436 133.866152,115 135.3,115 C137.509139,115 139.3,116.790861 139.3,119 C139.3,119.951622 138.967689,120.825629 138.412781,121.512305 L138.5,121.5 C138.503022,121.499568 138.507337,121.497757 138.512904,121.494609 C135.625812,124.447168 132.594708,127.261941 129.432752,129.926368 C131.768801,132.30706 134.197398,134.601047 136.708984,136.802671 C143.764574,130.386605 150.052292,123.141518 155.418261,115.221355 C156.071973,113.904039 157.430412,113 159,113 C161.209139,113 163,114.790861 163,117 C163,117.731073 162.803873,118.416338 162.461364,119.00605 L162.5,119 C162.507224,118.998898 162.517607,118.992861 162.530985,118.982148 C157.108298,127.105914 150.778588,134.57605 143.687991,141.246514 L142.938665,141.941632 C144.657906,143.275275 146.410482,144.567994 148.194933,145.818326 C159.687642,136.69205 168.734365,124.621122 174.194555,110.74658 C174.727051,109.150761 176.229138,108 178,108 C180.209139,108 182,109.790861 182,112 C182,112.731073 181.803873,113.416338 181.461364,114.00605 L181.5,114 C181.503409,113.999476 181.507875,113.996663 181.513351,113.991666 L181.343291,114.423968 L181.090609,115.043275 L180.833672,115.660075 C180.660002,116.072727 180.483518,116.483598 180.30414,116.892912 L180.236999,117.045737 L180.169562,117.198481 C179.783003,118.071871 179.38321,118.938196 178.970473,119.797125 L178.43038,120.902027 C178.386415,120.99046 178.342311,121.078813 178.29807,121.167085 C177.833611,122.093782 177.354017,123.011445 176.859576,123.919824 L176.42,124.716 L176.221,125.069 L176.341,124.859 L176.129,125.234 L176.171,125.158 L175.945,125.556 L176.064,125.348 L175.995041,125.472174 L175.825,125.766 L175.801,125.808 L175.795,125.818 L175.739,125.916 L175.624861,126.115934 C174.929504,127.313964 174.20792,128.494804 173.460863,129.657722 L173.460659,129.65804 C173.194798,130.071898 172.925501,130.4838 172.653009,130.893394 L172.720417,130.791925 L172.581,130.999 L172.58,131.001 L172.566,131.022 L172.503,131.115 L172.001,131.857 L172.079,131.744 L171.981,131.888 L171.978,131.892 L171.831051,132.107851 L171.137451,133.101269 C171.113781,133.134701 171.090088,133.168117 171.066374,133.201517 C170.503946,133.993655 169.929339,134.776447 169.342784,135.549679 L169.286,135.622 L168.681,136.409 L168.675,136.417 L168.576374,136.54586 L168.510605,136.630052 L168.51076,136.629855 C167.572845,137.829087 166.605934,139.004339 165.61101,140.154649 L164.937,140.923 L164.924,140.938 L164.752,141.131 L164.74,141.145 L164.69,141.201 L164.252,141.689 L164.157,141.795 L164.205,141.741 L163.938847,142.035644 L163.937,142.036 L163.129,142.909 L163.11,142.929 L163.084948,142.957627 L162.838,143.218 L162.822,143.235 L162.829,143.227 L162.788,143.27 L162.207,143.878 L162.068162,144.023519 L162.036294,144.056382 L161.233,144.872 L161.074673,145.032968 L161.074519,145.033122 C160.70584,145.402036 160.333887,145.767986 159.958857,146.130774 L159.924,146.163 L159.652254,146.426008 L159.488,146.582 L159.808,146.274 L159.2,146.855 L159.288,146.772 L159.113332,146.938426 L159.04,147.007 L159.024,147.022 L159.014827,147.0312 L158.959,147.082 L158.204,147.783 L158.285,147.709 L158.103,147.877 L158.202,147.785 L157.919294,148.044966 C152.512733,152.967736 146.516647,157.255197 140.049651,160.788774 C139.536681,161.068116 139.021438,161.343405 138.503279,161.613901 L139.015,161.344 L138.551548,161.589428 L138.017,161.866 L138.459,161.636 L137.901,161.925 L137.86,161.946 L137.420889,162.170372 L136.913,162.424 L137.181,162.289 L136.589513,162.58457 C136.352906,162.70111 136.115721,162.816663 135.877966,162.931223 L135.878406,162.931366 L135.328,163.193 L135.441793,163.14028 L135.267,163.222 L135.26,163.225 L135.19,163.258 L134.772,163.454 L134.299,163.672 L134.02,163.8 L133.540748,164.017237 L133.398196,164.08073 L133.314,164.117 L132.72547,164.377203 L132.049431,164.668747 L131.493,164.902 L130.725,165.22 L130.3,165.392 L130.632323,165.258826 L130.209496,165.429568 L130.194,165.435 L130.17,165.445 L130.174,165.443 L129.573,165.681 L129.67,165.643 L129.57478,165.681218 L129.543,165.693 L129.505,165.708 L129.164,165.84 L128.889,165.946 L128.826,165.97 L128.865,165.955 L128.187,166.211 L127.877,166.326 L127.645,166.411 L126.746,166.735 L126.25085,166.910867 L125.890128,167.035564 L125.723,167.092 L125.600296,167.134534 L125.411,167.197 L125.244943,167.254399 L125.336,167.222 L124.947893,167.353352 C117.4521,169.836039 109.529347,171.380842 101.318351,171.848844 L100.412,171.895 L100.162,171.906 L99.526,171.932 L99.663,171.927 L99.5506345,171.932744 L99.493,171.934 L99.414,171.937 L99.2074358,171.945056 L98.881,171.955 L98.856,171.956 L98.824,171.957 L98.781,171.958 L98.671,171.961 L98.5027317,171.96658 L98.337,171.97 L98.611,171.962 L97.995,171.977 L97.868,171.98 L97.922,171.979 L97.844,171.981 L97.81,171.982 L97.4005857,171.989549 L96,172 L94.5994061,171.989555 L94.189,171.982 L94.155,171.981 L94.077,171.979 L94.131,171.98 L94.004,171.977 L93.388,171.962 L93.662,171.97 L93.4973959,171.96662 L93.328,171.961 L93.218,171.958 L93.175,171.957 L93.143,171.956 L93.153,171.956 L93.118,171.955 L93.09,171.954 L92.669,171.94 L92.7928432,171.945145 L92.631,171.939 L92.585,171.937 L92.502,171.934 L92.4491028,171.932734 L92.328,171.927 L92.477,171.933 L91.843,171.906 L91.532,171.892 L91.247,171.878 L90.205,171.819 L89.6627397,171.785151 C81.5537192,171.233442 73.7334551,169.63108 66.3367028,167.113113 L65.4149659,166.793215 L64.2786456,166.384437 L63.6936103,166.167321 L63.284,166.012 L63.134,165.955 L63.064,165.928 L63.1104647,165.94636 L62.924,165.874 L62.4570814,165.693349 L62.495,165.708 L61.9495319,165.493135 L61.9495319,165.493135 L61.699,165.392 L61.1434161,165.167073 L60.4835526,164.893975 L59.825,164.614 L59.277,164.377 L59.174,164.332 L58.6842846,164.117576 L58.232,163.914 L58.0239536,163.821075 L57.899,163.764 L57.863,163.748 L57.878,163.754 L57.8226101,163.729318 L57.366389,163.519545 L57.661,163.654 L57.36,163.516 L57.323,163.499 L57.28,163.479 L57.227,163.454 L56.56,163.14 L57.006,163.351 L56.8082071,163.258628 L56.4526225,163.089963 L56.062,162.901 L55.232,162.495 L54.816,162.289 L54.701,162.231 L54.5331803,162.147138 L54.1393528,161.946772 L54.275,162.015 L54.098,161.925 L53.796,161.769 L53.9822349,161.866148 L53.5389737,161.63667 L53.761,161.751 L53.41,161.568 L52.721,161.204 L52.664,161.174 L52.703,161.194 L52.659,161.171 L52.478,161.074 L52.354,161.007 L51.367,160.466 L50.973004,160.247003 C46.0914174,157.502051 41.4854513,154.324413 37.2072733,150.766171 L36.7887339,150.414577 C36.3096856,150.011323 35.8348116,149.603273 35.3641859,149.190502 L35.3634965,149.191327 C34.9780549,148.851838 34.5947836,148.509995 34.214413,148.165015 L34.2135668,148.165701 L33.6844612,147.680795 L33.533,147.54 L33.683,147.68 L33.2608771,147.289426 L32.986,147.031 L33.041,147.082 L32.712,146.772 L32.289,146.367 L32.55,146.618 L32.2727449,146.354039 L31.7345155,145.832782 L31.7345155,145.832782 L32.042,146.13 L31.59,145.689 L31.483,145.584 L31.5342576,145.635187 L31.2169268,145.323459 L30.765,144.872 L30.902,145.008 L30.6037459,144.708108 C30.4732872,144.576274 30.3432244,144.444047 30.2135594,144.31143 L30.2125727,144.311906 L29.6897898,143.771552 L29.211,143.27 L29.421,143.492 L29.1605546,143.21811 L28.915,142.957 L29.162,143.218 L28.717,142.744 L28.8670423,142.906451 L28.3278816,142.326344 L28.062,142.035 L27.7478954,141.689565 L27.3092643,141.20112 L27.3092643,141.20112 L27.3083844,141.201595 C26.9331344,140.779274 26.5608332,140.353943 26.1924152,139.925182 L26.191821,139.925933 C25.8944675,139.578433 25.5990595,139.22944 25.3062201,138.878232 L25.3050323,138.878232 L25.087,138.614 L24.4297064,137.810908 L24.354,137.717 L24.104,137.405 L23.685,136.877 L23.980903,137.251583 L23.773842,136.991891 L23.49,136.63 L23.349,136.45 L23.468,136.601 L23.163,136.208 L23.317,136.409 L23.16,136.205 L23.1232093,136.157348 L23.091,136.115 L23.02,136.022 L23.062,136.078 L22.8524744,135.80615 L22.7138489,135.622907 L22.658,135.549 L22.2421246,134.996879 L22.3862288,135.190635 L22.0084982,134.684018 L21.7756243,134.366724 C21.5324495,134.035307 21.2914413,133.702202 21.0526206,133.367429 L21.0517092,133.367441 L20.726,132.907 L20.698,132.867 L20.692,132.859 L20.6397883,132.784129 L20.495,132.577 L20.3791303,132.411833 L20.3,132.296 L20.291,132.283 L20.2316101,132.197496 L20.175,132.115 L20.17,132.108 L20.169,132.107 L19.921,131.744 L19.997,131.857 L19.86,131.655 L19.911,131.729 L19.535,131.173 L19.496,131.115 L19.461,131.063 L19.424,131.008 L19.4195995,131.00115 L19.418,130.999 L19.379,130.941 L19.117,130.544 L18.714,129.926 L18.941,130.277 L18.8588013,130.151855 C18.7375391,129.965716 18.6169323,129.779111 18.4969843,129.592044 L18.4975087,129.59169 L17.8105283,128.503697 C17.5847344,128.140502 17.3614011,127.775619 17.1405516,127.409071 L17.1398477,127.409001 L16.848,126.92 L16.8944663,126.999306 L16.84,126.907 L16.785,126.814 L16.783,126.811 L16.784,126.811 L16.745,126.746 L16.5467226,126.410298 L16.474,126.285 L16.548,126.41 L16.4341022,126.216315 L16.328,126.033 L16.284,125.957 L16.142,125.71 L16.173,125.766 L16.122,125.675 L16.0668602,125.579629 L15.935,125.348 L15.8702072,125.234807 L15.802,125.112 L15.7045692,124.939751 L15.515,124.6 L15.477,124.531 L15.499,124.572 L15.468,124.515 L15.049,123.749 L15.063,123.776 L15.014,123.685 L14.9664847,123.597781 L14.904,123.481 L14.883,123.442 L14.6521787,123.009749 C14.5480997,122.813315 14.4447115,122.61646 14.3420174,122.419185 L14.3413765,122.418878 L14.043,121.84 L14.04,121.834 L14.038,121.831 L14.019,121.793 L14.016,121.788 L14.017,121.788 L14.008,121.771 L14.011,121.778 L13.989,121.734 L13.954,121.665 L13.903,121.565 L13.8383203,121.438094 L13.762,121.286 L13.726,121.215 L13.726,121.214 L13.718,121.198 L13.7077238,121.177762 L13.658,121.079 L13.547,120.856 L13.534,120.83 L13.546,120.853 L13.522,120.805 L13.485,120.73 L13.188,120.122 L13.148,120.04 L13.119,119.981 L13.112,119.966 L13.106,119.953 L13.083,119.907 L13.079,119.898 L13.063,119.865 L13.03,119.797 L13.013,119.762 L13.001,119.737 L12.989,119.713 L12.998,119.73 L12.985,119.704 L12.961,119.655 L12.972,119.676 L12.954,119.639 L12.917,119.561 L12.895,119.514 L12.88,119.483 L12.872,119.466 L12.533,118.744 L12.497,118.667 L12.501,118.677 L12.495,118.663 L12.46,118.588 L12.456,118.579 L12.455,118.577 L12.4254037,118.513788 L12.422,118.506 L12.415,118.492 L12.395,118.448 L12.28,118.197 L12.266,118.166 L12.265,118.163 L12.26,118.153 L12.248,118.127 L12.249,118.128 L12.235,118.097 L12.222,118.069 L12.213,118.049 L12.212,118.047 L12.205,118.031 L11.98,117.532 L11.95,117.465 L11.924,117.407 L11.899,117.351 L11.909,117.375 L11.877,117.302 L11.857,117.258 L11.6958704,116.892935 L11.696271,116.893118 C11.4573277,116.348372 11.2236854,115.800951 10.9952862,115.250862 L10.7071994,114.548107 L10.681,114.484 L10.461383,113.935517 L10.219615,113.320791 L10.1044763,113.022278 L10.133294,113.027853 C10.0463355,112.699866 10,112.355344 10,112 C10,109.790861 11.790861,108 14,108 C15.8563281,108 17.417312,109.264519 17.8685594,110.979164 L17.898,110.984 L18.2007425,111.733217 C23.6965389,125.193232 32.583858,136.908262 43.8007687,145.816376 C45.5895178,144.567994 47.3420944,143.275275 49.0613352,141.941632 C41.9270779,135.337335 35.547108,127.930914 30.0644949,119.865735 C30.0720796,119.830762 30.0797011,119.789465 30.0877428,119.742462 C29.4133448,119.026108 29,118.061325 29,117 C29,114.790861 30.790861,113 33,113 C34.478474,113 35.7696012,113.802127 36.4619378,114.994937 L36.5,115 L36.4625111,114.995926 C36.505153,115.069441 36.5455208,115.144439 36.5835183,115.220824 L36.473,115.061 L37.0780649,115.949589 C42.3333865,123.585681 48.4499052,130.583017 55.2874813,136.801419 C57.6403487,134.743276 59.9170688,132.603067 62.1168356,130.386383 C59.2757526,128.01925 56.5388162,125.531411 53.9139014,122.930741 L52.936,121.952 L52.9667938,121.977258 C52.9846622,121.991847 52.9956718,121.999516 53,122 L53.170583,122.014402 C52.3306597,121.281141 51.8,120.202542 51.8,119 C51.8,116.790861 53.590861,115 55.8,115 C57.2756167,115 58.56461,115.79903 59.2579169,116.988026 C59.3357537,116.989667 59.4167113,116.99375 59.5,117 L59.2847163,116.990117 C61.9330497,119.629945 64.7040415,122.146794 67.5883973,124.531374 C69.4549693,122.412812 71.2555578,120.234841 72.9869802,118.000664 L73,118 L73.0323415,118.004826 C73.7232708,116.806562 75.017444,116 76.5,116 C78.709139,116 80.5,117.790861 80.5,120 C80.5,120.726991 80.306057,121.408685 79.9670876,121.996164 L80,122 L80,122 L80.0061966,122.000293 L79.995,122.014 L79.722,122.369 L79.7536831,122.327231 L80.0061966,122.000293 C78.065825,124.544392 76.0410328,127.023117 73.9362853,129.430146 Z" id="形状结合" fill="#FF6A00" fill-rule="nonzero"></path>
        </g>
    </g>
</svg>